HIERARCHY
ROOT Hips
{
	OFFSET 0.00000 0.00000 0.00000
	CHANNELS 6 Xposition Yposition Zposition Zrotation Yrotation Xrotation 
	JOINT LHipJoint
	{
		OFFSET 0 0 0
		CHANNELS 3 Zrotation Yrotation Xrotation
		JOINT LeftUpLeg
		{
			OFFSET 1.66553 -1.82942 0.76350
			CHANNELS 3 Zrotation Yrotation Xrotation
			JOINT LeftLeg
			{
				OFFSET 2.41740 -6.64177 0.00000
				CHANNELS 3 Zrotation Yrotation Xrotation
				JOINT LeftFoot
				{
					OFFSET 2.71614 -7.46254 0.00000
					CHANNELS 3 Zrotation Yrotation Xrotation
					JOINT LeftToeBase
					{
						OFFSET 0.08005 -0.21993 1.82495
						CHANNELS 3 Zrotation Yrotation Xrotation
						End Site
						{
							OFFSET 0.00000 -0.00000 0.93441
						}
					}
				}
			}
		}
	}
	JOINT RHipJoint
	{
		OFFSET 0 0 0
		CHANNELS 3 Zrotation Yrotation Xrotation
		JOINT RightUpLeg
		{
			OFFSET -1.63725 -1.82942 0.76350
			CHANNELS 3 Zrotation Yrotation Xrotation
			JOINT RightLeg
			{
				OFFSET -2.40538 -6.60872 0.00000
				CHANNELS 3 Zrotation Yrotation Xrotation
				JOINT RightFoot
				{
					OFFSET -2.73312 -7.50919 0.00000
					CHANNELS 3 Zrotation Yrotation Xrotation
					JOINT RightToeBase
					{
						OFFSET -0.15567 -0.42769 1.93504
						CHANNELS 3 Zrotation Yrotation Xrotation
						End Site
						{
							OFFSET -0.00000 -0.00000 1.00100
						}
					}
				}
			}
		}
	}
	JOINT LowerBack
	{
		OFFSET 0 0 0
		CHANNELS 3 Zrotation Yrotation Xrotation
		JOINT Spine
		{
			OFFSET 0.00326 2.30118 -0.13017
			CHANNELS 3 Zrotation Yrotation Xrotation
			JOINT Spine1
			{
				OFFSET 0.02887 2.30677 0.00834
				CHANNELS 3 Zrotation Yrotation Xrotation
				JOINT Neck
				{
					OFFSET 0 0 0
					CHANNELS 3 Zrotation Yrotation Xrotation
					JOINT Neck1
					{
						OFFSET 0.12946 1.68326 0.00713
						CHANNELS 3 Zrotation Yrotation Xrotation
						JOINT Head
						{
							OFFSET -0.24364 1.67243 -0.16079
							CHANNELS 3 Zrotation Yrotation Xrotation
							End Site
							{
								OFFSET -0.09229 1.70819 -0.06383
							}
						}
					}
				}
				JOINT LeftShoulder
				{
					OFFSET 0 0 0
					CHANNELS 3 Zrotation Yrotation Xrotation
					JOINT LeftArm
					{
						OFFSET 3.28104 0.69567 -0.00556
						CHANNELS 3 Zrotation Yrotation Xrotation
						JOINT LeftForeArm
						{
							OFFSET 5.70706 -0.00000 -0.00000
							CHANNELS 3 Zrotation Yrotation Xrotation
							JOINT LeftHand
							{
								OFFSET 3.33243 -0.00000 0.00000
								CHANNELS 3 Zrotation Yrotation Xrotation
								JOINT LeftFingerBase
								{
									OFFSET 0 0 0
									CHANNELS 3 Zrotation Yrotation Xrotation
									JOINT LeftHandIndex1
									{
										OFFSET 0.79269 -0.00000 0.00000
										CHANNELS 3 Zrotation Yrotation Xrotation
										End Site
										{
											OFFSET 0.63909 -0.00000 0.00000
										}
									}
								}
								JOINT LThumb
								{
									OFFSET 0 0 0
									CHANNELS 3 Zrotation Yrotation Xrotation
									End Site
									{
										OFFSET 0.64884 -0.00000 0.64884
									}
								}
							}
						}
					}
				}
				JOINT RightShoulder
				{
					OFFSET 0 0 0
					CHANNELS 3 Zrotation Yrotation Xrotation
					JOINT RightArm
					{
						OFFSET -3.40955 0.64424 0.14010
						CHANNELS 3 Zrotation Yrotation Xrotation
						JOINT RightForeArm
						{
							OFFSET -5.88176 -0.00000 -0.00000
							CHANNELS 3 Zrotation Yrotation Xrotation
							JOINT RightHand
							{
								OFFSET -3.28156 -0.00000 0.00000
								CHANNELS 3 Zrotation Yrotation Xrotation
								JOINT RightFingerBase
								{
									OFFSET 0 0 0
									CHANNELS 3 Zrotation Yrotation Xrotation
									JOINT RightHandIndex1
									{
										OFFSET -0.86313 -0.00000 0.00000
										CHANNELS 3 Zrotation Yrotation Xrotation
										End Site
										{
											OFFSET -0.69587 -0.00000 0.00000
										}
									}
								}
								JOINT RThumb
								{
									OFFSET 0 0 0
									CHANNELS 3 Zrotation Yrotation Xrotation
									End Site
									{
										OFFSET -0.70650 -0.00000 0.70650
									}
								}
							}
						}
					}
				}
			}
		}
	}
}
MOTION
Frames: 6
Frame Time: .0083333
0.2985 16.9797 -2.8512 -10.4917 10.5771 -3.5000 0.0000 0.0000 0.0000 -9.3010 -12.8253 -16.6144 7.4228 15.6778 50.4559 1.8043 -14.6057 -24.6954 0.4522 -4.3143 -11.9626 0.0000 0.0000 0.0000 16.6712 12.4405 -2.4827 -4.1079 -12.3026 36.8111 -1.0365 7.7703 -18.2091 -1.2733 -7.1516 20.1653 3.6324 -2.0516 5.0531 4.8271 -2.3237 -0.8469 3.1531 -1.1774 -3.6592 8.3250 -10.2727 -3.4476 -6.1941 -13.9137 3.4936 -3.5144 -6.9718 0.6287 0.0000 0.0000 0.0000 10.1057 -17.9485 -16.7444 95.7034 -59.8767 -64.9373 -0.0000 0.0000 -5.3924 50.4921 11.5516 13.6504 -7.1250 0.0000 -0.0000 22.3504 46.4937 0.8665 0.0000 0.0000 0.0000 61.1207 32.7584 63.5019 -104.6454 59.1738 -72.6481 0.0000 -0.0000 -17.0118 -18.3494 19.0601 -6.1817 7.1250 -0.0000 -0.0000 6.4048 -10.0767 5.2189
0.2611 16.9808 -2.8257 -10.9075 10.5630 -3.4768 0.0000 0.0000 0.0000 -8.6917 -13.0465 -16.6391 7.4733 15.7178 50.6425 1.8750 -14.1108 -25.0436 0.5878 -4.9088 -13.6485 0.0000 0.0000 0.0000 16.8995 12.3221 -1.7969 -3.7801 -11.8620 35.2454 -0.9072 8.8441 -17.1731 -1.2568 -7.1069 20.0325 3.6077 -2.0113 5.0213 5.0387 -2.2567 -0.9972 3.3867 -1.1417 -3.7904 8.0794 -10.6301 -3.2185 -6.0118 -14.3641 3.6330 -3.3928 -7.1919 0.6315 -0.0000 0.0000 0.0000 10.2963 -17.5592 -16.8395 96.5345 -59.8380 -65.6559 -0.0000 0.0000 -5.7187 50.6732 11.6735 13.8727 -7.1250 0.0000 -0.0000 22.5849 46.7043 0.9998 -0.0000 0.0000 0.0000 60.6360 32.3836 63.6582 -104.5902 59.1802 -72.6007 0.0000 -0.0000 -16.6772 -18.2778 19.0304 -6.1469 7.1250 -0.0000 -0.0000 6.4497 -10.1162 5.2509
0.2268 16.9735 -2.7999 -11.4767 10.6115 -3.5806 0.0000 0.0000 0.0000 -7.9411 -13.2937 -16.5919 7.5393 15.7697 50.8859 1.8631 -14.3021 -25.0035 0.5261 -4.6482 -12.9078 0.0000 0.0000 0.0000 17.2867 11.8278 -1.1289 -3.4802 -11.4345 33.7596 -0.7720 10.3157 -16.2133 -1.0397 -6.4848 18.1978 3.8015 -1.9973 4.9582 5.2548 -2.2198 -1.0212 3.4997 -1.1248 -3.7807 7.9370 -10.9274 -3.1589 -5.8601 -14.7518 3.7639 -3.3125 -7.3822 0.6575 0.0000 -0.0000 0.0000 10.6113 -17.1641 -17.1120 97.2141 -59.8024 -66.2434 -0.0000 0.0000 -6.1441 51.0591 12.0382 14.4721 -7.1250 0.0000 -0.0000 23.1329 47.3029 1.3859 0.0000 -0.0000 0.0000 60.0449 32.2269 63.5857 -104.4217 59.1993 -72.4560 0.0000 -0.0000 -16.4147 -18.0733 19.6506 -6.2627 7.1250 -0.0000 -0.0000 6.6157 -9.5026 5.4703
0.1881 16.9617 -2.7719 -12.0652 10.7048 -3.6825 0.0000 0.0000 0.0000 -7.1269 -13.5387 -16.6098 7.6288 15.8393 51.2143 1.8652 -14.5786 -25.0664 0.4591 -4.3464 -12.0534 0.0000 0.0000 0.0000 17.7170 11.1336 -0.5624 -3.2154 -11.0358 32.4006 -0.5964 12.1628 -15.1226 -0.9867 -6.3225 17.7231 3.9514 -2.0271 4.8014 5.5470 -2.2719 -0.7166 3.7080 -1.1491 -3.3687 8.0356 -11.0664 -4.1816 -5.7529 -15.0191 3.8818 -3.3721 -7.5216 0.8549 -0.0000 0.0000 0.0000 11.0295 -16.5718 -18.0681 97.4368 -59.7900 -66.4359 -0.0000 0.0000 -6.5433 51.4236 12.2218 14.8642 -7.1250 0.0000 -0.0000 23.5965 47.6462 1.6268 -0.0000 0.0000 0.0000 59.0916 32.8180 63.1309 -104.5925 59.1799 -72.6027 0.0000 -0.0000 -16.2768 -17.8007 19.9130 -6.2409 7.1250 -0.0000 -0.0000 6.8060 -9.2676 5.6622
0.1442 16.9536 -2.7443 -12.5692 10.7430 -3.6333 0.0000 0.0000 0.0000 -6.3466 -13.7274 -16.8300 7.7290 15.9163 51.5807 1.8622 -14.8843 -25.1059 0.3829 -3.9738 -11.0029 0.0000 0.0000 0.0000 18.0790 10.4170 -0.2394 -2.9789 -10.6608 31.1441 -0.4279 13.4842 -14.0608 -1.0687 -6.5720 18.4533 4.0545 -2.0850 4.5880 5.7121 -2.3394 -0.9303 3.8269 -1.1837 -3.4660 7.7652 -11.3648 -2.9473 -5.3395 -15.3305 3.4271 -3.0724 -7.6651 0.5279 -0.0000 0.0000 0.0000 11.3710 -16.0148 -18.0275 97.6869 -59.7755 -66.6520 -0.0000 0.0000 -7.0451 51.6096 12.5075 15.2875 -7.1250 0.0000 -0.0000 23.9169 48.0922 1.9281 -0.0000 0.0000 0.0000 58.6722 32.6238 63.4858 -104.8365 59.1517 -72.8122 0.0000 -0.0000 -16.0566 -17.9363 19.8394 -6.2691 7.1250 -0.0000 -0.0000 6.7145 -9.3258 5.5772
0.1050 16.9550 -2.7186 -13.0122 10.7844 -3.6027 0.0000 0.0000 0.0000 -5.6842 -13.9253 -17.0262 7.8227 15.9873 51.9214 1.9857 -13.9728 -25.6996 0.6648 -5.2146 -14.5217 0.0000 0.0000 0.0000 18.3867 9.5223 0.0356 -2.7631 -10.3013 29.9581 -0.3554 13.9671 -13.5918 -0.9137 -6.0908 17.0481 4.1312 -2.1254 4.5579 5.8826 -2.3812 -0.9876 3.9672 -1.2044 -3.5037 7.7756 -11.5453 -2.7184 -5.2374 -15.5591 3.2870 -3.0118 -7.7769 0.4360 0.0000 -0.0000 0.0000 11.7084 -15.5664 -18.3753 97.8169 -59.7678 -66.7643 -0.0000 0.0000 -7.1815 51.5126 12.6901 15.4454 -7.1250 0.0000 -0.0000 23.8883 48.3245 2.0692 0.0000 -0.0000 0.0000 58.1691 32.8334 63.6103 -105.0094 59.1314 -72.9606 0.0000 -0.0000 -16.1103 -18.1680 19.5608 -6.2700 7.1250 -0.0000 -0.0000 6.5496 -9.5831 5.4042
